<?xml version="1.0" standalone="no"?>
<!DOCTYPE svg PUBLIC "-//W3C//DTD SVG 20010904//EN"
 "http://www.w3.org/TR/2001/REC-SVG-20010904/DTD/svg10.dtd">
<svg version="1.0" xmlns="http://www.w3.org/2000/svg"
 width="700.000000pt" height="700.000000pt" viewBox="0 0 700.000000 700.000000"
 preserveAspectRatio="xMidYMid meet">
<metadata>
Created by potrace 1.11, written by Peter Selinger 2001-2013
</metadata>
<g transform="translate(0.000000,700.000000) scale(0.100000,-0.100000)"
fill="#000000" stroke="none">
<path d="M3690 6641 l0 -359 53 -7 c28 -4 80 -13 115 -20 l62 -13 0 379 0 379
-115 0 -115 0 0 -359z"/>
<path d="M3210 6499 c0 -245 1 -261 18 -254 9 3 63 14 120 23 l102 16 0 238 0
238 -120 0 -120 0 0 -261z"/>
<path d="M3453 5792 c-95 -34 -168 -98 -209 -185 l-18 -37 -448 0 -449 0 -49
-102 c-28 -57 -50 -109 -50 -115 0 -10 106 -13 498 -13 l499 0 19 -42 c27 -59
104 -135 171 -166 50 -23 71 -27 153 -27 89 0 99 2 158 34 78 43 144 115 171
187 28 74 28 184 0 259 -27 73 -101 153 -176 190 -76 38 -192 45 -270 17z m5
-114 c36 -36 -29 -133 -84 -126 -40 5 -50 28 -30 69 25 54 86 85 114 57z"/>
<path d="M4290 5095 l0 -115 110 0 110 0 0 115 0 115 -110 0 -110 0 0 -115z"/>
<path d="M2150 4615 c0 -3 47 -99 104 -214 66 -131 115 -217 132 -230 23 -18
40 -21 119 -21 78 0 94 -3 99 -17 12 -30 4 -233 -11 -307 -55 -269 -253 -521
-510 -650 -119 -59 -230 -87 -373 -93 -69 -3 -151 -1 -182 4 l-57 10 -30 -86
c-63 -176 -106 -368 -125 -558 l-5 -51 72 -14 c113 -21 480 -18 587 5 47 10
92 20 101 23 13 4 22 -11 42 -68 14 -40 90 -265 170 -500 l146 -427 -99 -50
c-176 -88 -348 -216 -474 -353 -112 -122 -110 -112 -35 -205 80 -98 213 -231
310 -309 85 -69 139 -108 143 -103 97 132 173 208 267 271 393 260 899 206
1220 -129 119 -125 197 -264 239 -428 l18 -70 39 2 c43 2 182 41 288 80 110
40 345 155 345 168 0 6 -14 54 -31 106 -73 223 -209 454 -362 616 l-39 41 347
396 c190 218 348 396 350 396 2 0 38 -23 81 -52 161 -108 368 -196 567 -242
112 -26 109 -27 134 62 45 157 74 331 88 535 6 82 5 87 -13 87 -37 0 -197 51
-264 85 -104 52 -177 104 -259 185 -329 326 -372 846 -101 1223 l35 48 -49 51
c-81 84 -250 225 -340 285 -84 56 -84 56 -65 77 10 12 64 112 120 224 l101
202 -1420 0 c-781 0 -1420 -2 -1420 -5z m2431 -497 c-87 -133 -183 -338 -212
-454 -6 -24 -17 -44 -24 -44 -16 0 -1016 198 -1020 202 -2 2 -1 76 2 166 l6
162 634 0 635 0 -21 -32z m-1209 -543 c65 -14 927 -185 931 -185 1 0 2 -98 2
-218 1 -184 4 -232 23 -317 63 -290 183 -536 369 -756 l80 -94 -324 -370
c-178 -204 -334 -381 -348 -394 l-23 -24 -97 63 c-351 227 -792 317 -1195 244
-52 -10 -106 -18 -119 -18 -22 -1 -32 25 -192 493 -93 272 -168 495 -167 496
2 1 45 23 96 49 390 194 687 534 832 954 19 53 38 92 46 92 7 0 46 -7 86 -15z"/>
<path d="M1639 4223 c-68 -47 -268 -298 -378 -475 -306 -489 -459 -1096 -421
-1667 16 -243 28 -281 99 -302 47 -14 85 -2 123 38 26 28 26 26 12 273 -33
560 102 1093 390 1544 88 136 139 205 258 344 82 96 88 106 88 147 0 63 -38
105 -100 112 -33 3 -52 -1 -71 -14z"/>
<path d="M6119 2585 c-27 -14 -59 -69 -59 -99 0 -35 30 -85 59 -100 51 -27 98
-21 137 18 36 36 44 78 24 130 -20 55 -105 81 -161 51z"/>
<path d="M6108 2100 c-34 -26 -44 -57 -57 -175 -33 -285 -119 -571 -257 -848
-137 -273 -272 -457 -512 -695 -95 -96 -178 -187 -184 -203 -23 -66 34 -139
109 -139 56 0 91 26 248 184 243 242 405 467 550 761 146 297 225 550 270 869
23 163 21 192 -19 232 -29 29 -41 34 -79 34 -29 0 -53 -7 -69 -20z"/>
</g>
</svg>
